<?xml version="1.0" encoding="UTF-8" standalone="no"?>
<svg
   x="0"
   y="0"
   viewBox="0 0 484.03535 222.85692"
   version="1.1"
   id="svg91"
   sodipodi:docname="ejercicio-medicamento.svg"
   inkscape:version="1.4.2 (f4327f4, 2025-05-13)"
   width="484.03537"
   height="222.85692"
   inkscape:export-filename="lesson-overview.png"
   inkscape:export-xdpi="131.09785"
   inkscape:export-ydpi="131.09785"
   xmlns:inkscape="http://www.inkscape.org/namespaces/inkscape"
   xmlns:sodipodi="http://sodipodi.sourceforge.net/DTD/sodipodi-0.dtd"
   xmlns="http://www.w3.org/2000/svg"
   xmlns:svg="http://www.w3.org/2000/svg">
  <defs
     id="defs91" />
  <sodipodi:namedview
     id="namedview91"
     pagecolor="#ffffff"
     bordercolor="#000000"
     borderopacity="0.25"
     inkscape:showpageshadow="2"
     inkscape:pageopacity="0.0"
     inkscape:pagecheckerboard="0"
     inkscape:deskcolor="#d1d1d1"
     showguides="true"
     inkscape:zoom="2.581102"
     inkscape:cx="321.76179"
     inkscape:cy="108.28708"
     inkscape:window-width="2560"
     inkscape:window-height="1369"
     inkscape:window-x="1912"
     inkscape:window-y="-2"
     inkscape:window-maximized="1"
     inkscape:current-layer="svg91"
     inkscape:export-bgcolor="#ffffffff" />
  <!-- Top headers -->
  <text
     x="69.247757"
     y="15.298828"
     id="text1"
     style="font-size:21px;font-family:Helvetica"><tspan
       style="font-style:normal;font-variant:normal;font-weight:normal;font-stretch:normal;font-family:Arial;-inkscape-font-specification:Arial"
       id="tspan4">Datos de inflamaciones</tspan></text>
  <text
     x="362.88104"
     y="15.288574"
     id="text3"
     style="font-size:21px;font-family:Helvetica"><tspan
       style="font-style:normal;font-variant:normal;font-weight:normal;font-stretch:normal;font-family:Arial;-inkscape-font-specification:Arial"
       id="tspan5">Conclusión</tspan></text>
  <!-- Conclusion section -->
  <g
     id="g7"
     transform="translate(-20,-11.448172)">
    <g
       id="g96"
       transform="translate(-170.4726)">
      <circle
         style="fill:#ffffff;stroke:#005fa3;stroke-width:10"
         cx="605.09998"
         cy="107.8"
         r="50.200001"
         id="circle3" />
      <text
         x="585.30701"
         y="133.35997"
         style="font-size:72px;font-family:Helvetica-Bold;fill:#005fa3"
         id="text4"><tspan
           style="font-style:normal;font-variant:normal;font-weight:normal;font-stretch:normal;font-family:Arial;-inkscape-font-specification:Arial"
           id="tspan1">?</tspan></text>
    </g>
    <g
       style="font-size:18px;font-family:Helvetica-Bold;fill:#005fa3"
       id="g6"
       transform="translate(-182.72284)">
      <text
         transform="translate(546.6282,184.9851)"
         id="text6"
         style="text-align:center;text-anchor:middle;white-space:pre;inline-size:142.343;display:inline"
         x="69.956985"
         y="0"
         xml:space="preserve"><tspan
           x="69.956985"
           y="0"
           id="tspan6"><tspan
             style="font-family:Arial;-inkscape-font-specification:Arial"
             id="tspan3">¿Cómo afecta la
</tspan></tspan><tspan
           x="69.956985"
           y="22.664172"
           id="tspan16"><tspan
   style="font-family:Arial;-inkscape-font-specification:Arial"
   id="tspan8">medicación a los</tspan><tspan
   y="22.664172"
   id="tspan17"> </tspan></tspan><tspan
           x="69.956985"
           y="45.328345"
           id="tspan19"><tspan
   style="font-family:Arial;-inkscape-font-specification:Arial"
   id="tspan18">pacientes?</tspan>
</tspan></text>
    </g>
  </g>
  <!-- Table headers -->
  <!-- Table lines -->
  <!-- Patient 1 -->
  <!-- Patient 2 -->
  <!-- Patient 3 -->
  <!-- Patient 4 -->
  <!-- Patient 5 -->
  <g
     style="font-size:10px;font-family:Helvetica-Bold"
     id="g14"
     transform="translate(-20,-11.448172)">
    <text
       transform="matrix(0.7071,-0.7071,0.7071,0.7071,87.266,70.2494)"
       id="text7"><tspan
         sodipodi:role="line"
         id="tspan92"
         x="0"
         y="0">Día 1</tspan></text>
    <text
       transform="matrix(0.7071,-0.7071,0.7071,0.7071,118.8451,70.2498)"
       id="text8">Día 2</text>
    <text
       transform="matrix(0.7071,-0.7071,0.7071,0.7071,150.7304,70.2498)"
       id="text9">Día 3</text>
    <text
       transform="matrix(0.7071,-0.7071,0.7071,0.7071,183.3095,70.2503)"
       id="text10">Día 4</text>
    <text
       transform="matrix(0.7071,-0.7071,0.7071,0.7071,214.6142,70.2494)"
       id="text11">Día 5</text>
    <text
       transform="matrix(0.7071,-0.7071,0.7071,0.7071,246.1933,70.2498)"
       id="text12">Día 6</text>
    <text
       transform="matrix(0.7071,-0.7071,0.7071,0.7071,278.0314,70.2498)"
       id="text13">Día 7</text>
    <text
       transform="translate(29.0003,60.7761)"
       id="text14"><tspan
         style="font-style:normal;font-variant:normal;font-weight:normal;font-stretch:normal;font-family:Arial;-inkscape-font-specification:Arial"
         id="tspan7">Pacientes</tspan></text>
  </g>
  <g
     style="fill:none;stroke:#000000;stroke-width:0.5"
     id="g28"
     transform="translate(-20,-11.448172)">
    <!-- vertical lines -->
    <line
       x1="78"
       y1="43.799999"
       x2="78"
       y2="228"
       id="line14" />
    <line
       x1="109.9"
       y1="43.799999"
       x2="109.9"
       y2="228"
       id="line15" />
    <line
       x1="141.7"
       y1="43.799999"
       x2="141.7"
       y2="228"
       id="line16" />
    <line
       x1="173.5"
       y1="43.799999"
       x2="173.5"
       y2="228"
       id="line17" />
    <line
       x1="205.3"
       y1="43.799999"
       x2="205.3"
       y2="228"
       id="line18" />
    <line
       x1="237.10001"
       y1="43.799999"
       x2="237.10001"
       y2="228"
       id="line19" />
    <line
       x1="268.89999"
       y1="43.799999"
       x2="268.89999"
       y2="228"
       id="line20" />
    <line
       x1="300.70001"
       y1="43.799999"
       x2="300.70001"
       y2="228"
       id="line21" />
    <!-- horizontal lines -->
    <line
       x1="316.29999"
       y1="43.799999"
       x2="78"
       y2="43.799999"
       id="line22" />
    <line
       x1="316.29999"
       y1="73.199997"
       x2="20"
       y2="73.199997"
       id="line23" />
    <line
       x1="316.29999"
       y1="101.3"
       x2="20"
       y2="101.3"
       id="line24" />
    <line
       x1="316.29999"
       y1="129.39999"
       x2="20"
       y2="129.39999"
       id="line25" />
    <line
       x1="316.29999"
       y1="157.5"
       x2="20"
       y2="157.5"
       id="line26" />
    <line
       x1="316.29999"
       y1="185.60001"
       x2="20"
       y2="185.60001"
       id="line27" />
    <line
       x1="316.29999"
       y1="213.7"
       x2="20"
       y2="213.7"
       id="line28" />
  </g>
  <g
     fill="#0072b2"
     style="font-size:14px;font-family:Helvetica"
     id="g34"
     transform="matrix(1.088595,0,0,1,-23.720989,-11.448172)">
    <path
       d="m 47.9,88.7 h 2.3 c 3.2,0 5.8,2.6 5.8,5.8 v 0 c 0,1.4 -1.2,2.6 -2.6,2.6 H 44.6 C 43.2,97.1 42,95.9 42,94.5 v 0 c 0,-3.2 2.6,-5.8 5.9,-5.8 z"
       id="path28" />
    <ellipse
       cx="49"
       cy="84.599998"
       rx="4.8000002"
       ry="5.3000002"
       stroke="#ffffff"
       stroke-width="1"
       id="ellipse28" />
    <text
       x="90"
       y="92.07"
       id="text34"><tspan
         dx="0"
         dy="0"
         id="tspan28">0</tspan><tspan
         dx="20.200001"
         dy="0"
         id="tspan29">0</tspan><tspan
         dx="20.200001"
         dy="0"
         id="tspan30">1</tspan><tspan
         dx="20.200001"
         dy="0"
         id="tspan31">3</tspan><tspan
         dx="20.200001"
         dy="0"
         id="tspan32">1</tspan><tspan
         dx="20.200001"
         dy="0"
         id="tspan33">2</tspan><tspan
         dx="20.200001"
         dy="0"
         id="tspan34">4</tspan></text>
  </g>
  <g
     fill="#d55e00"
     style="font-size:14px;font-family:Helvetica"
     id="g41"
     transform="matrix(1.0849527,0,0,1,-23.534032,-11.448172)">
    <path
       d="m 44.6,125.6 c -1.6,0 -3,-1.3 -3,-3 0,-3.4 2.8,-6.2 6.2,-6.2 h 2.3 c 3.4,0 6.2,2.8 6.2,6.2 0,1.6 -1.3,3 -3,3 z"
       id="path34" />
    <ellipse
       cx="49"
       cy="112.7"
       rx="4.8000002"
       ry="5.3000002"
       stroke="#ffffff"
       stroke-width="1"
       id="ellipse34" />
    <text
       x="90"
       y="120.16"
       id="text41"><tspan
         dx="0"
         dy="0"
         id="tspan35">0</tspan><tspan
         dx="20.200001"
         dy="0"
         id="tspan36">1</tspan><tspan
         dx="20.200001"
         dy="0"
         id="tspan37">2</tspan><tspan
         dx="20.200001"
         dy="0"
         id="tspan38">1</tspan><tspan
         dx="20.200001"
         dy="0"
         id="tspan39">2</tspan><tspan
         dx="20.200001"
         dy="0"
         id="tspan40">1</tspan><tspan
         dx="20.200001"
         dy="0"
         id="tspan41">3</tspan></text>
  </g>
  <g
     fill="#009e9e"
     style="font-size:14px;font-family:Helvetica"
     id="g48"
     transform="matrix(1.0832215,0,0,1,-23.462015,-11.448172)">
    <path
       d="m 44.6,153.7 c -1.6,0 -3,-1.3 -3,-3 0,-3.4 2.8,-6.2 6.2,-6.2 h 2.3 c 3.4,0 6.2,2.8 6.2,6.2 0,1.6 -1.3,3 -3,3 z"
       id="path41" />
    <ellipse
       cx="49"
       cy="140.8"
       rx="4.8000002"
       ry="5.3000002"
       stroke="#ffffff"
       stroke-width="1"
       id="ellipse41" />
    <text
       x="90"
       y="148.25999"
       id="text48"><tspan
         dx="0"
         dy="0"
         id="tspan42">0</tspan><tspan
         dx="20.200001"
         dy="0"
         id="tspan43">1</tspan><tspan
         dx="20.200001"
         dy="0"
         id="tspan44">1</tspan><tspan
         dx="20.200001"
         dy="0"
         id="tspan45">3</tspan><tspan
         dx="20.200001"
         dy="0"
         id="tspan46">3</tspan><tspan
         dx="20.200001"
         dy="0"
         id="tspan47">2</tspan><tspan
         dx="20.200001"
         dy="0"
         id="tspan48">6</tspan></text>
  </g>
  <g
     fill="#56b4e9"
     style="font-size:14px;font-family:Helvetica"
     id="g55"
     transform="matrix(1.0834065,0,0,1,-23.503074,-11.448172)">
    <path
       d="m 47.9,173 h 2.3 c 3.2,0 5.8,2.6 5.8,5.8 v 0 c 0,1.4 -1.2,2.6 -2.6,2.6 h -8.8 c -1.4,0 -2.6,-1.2 -2.6,-2.6 v 0 c 0,-3.2 2.6,-5.8 5.9,-5.8 z"
       id="path48" />
    <ellipse
       cx="49"
       cy="168.89999"
       rx="4.8000002"
       ry="5.3000002"
       stroke="#ffffff"
       stroke-width="1"
       id="ellipse48" />
    <text
       x="90"
       y="176.35001"
       id="text55"><tspan
         dx="0"
         dy="0"
         id="tspan49">0</tspan><tspan
         dx="20.200001"
         dy="0"
         id="tspan50">0</tspan><tspan
         dx="20.200001"
         dy="0"
         id="tspan51">2</tspan><tspan
         dx="20.200001"
         dy="0"
         id="tspan52">0</tspan><tspan
         dx="20.200001"
         dy="0"
         id="tspan53">4</tspan><tspan
         dx="20.200001"
         dy="0"
         id="tspan54">2</tspan><tspan
         dx="20.200001"
         dy="0"
         id="tspan55">2</tspan></text>
  </g>
  <g
     fill="#7221bc"
     style="font-size:14px;font-family:Helvetica"
     id="g62"
     transform="matrix(1.0816313,0,0,1,-23.428517,-11.448172)">
    <path
       d="m 47.9,200.2 h 2.3 c 3.2,0 5.8,2.6 5.8,5.8 v 0 c 0,1.4 -1.2,2.6 -2.6,2.6 h -8.8 c -1.4,0 -2.6,-1.2 -2.6,-2.6 v 0 c 0,-3.2 2.6,-5.8 5.9,-5.8 z"
       id="path55" />
    <ellipse
       cx="49"
       cy="196.2"
       rx="4.8000002"
       ry="5.3000002"
       stroke="#ffffff"
       stroke-width="1"
       id="ellipse55" />
    <text
       x="90"
       y="204.60001"
       id="text62"><tspan
         dx="0"
         dy="0"
         id="tspan56">0</tspan><tspan
         dx="20.200001"
         dy="0"
         id="tspan57">1</tspan><tspan
         dx="20.200001"
         dy="0"
         id="tspan58">1</tspan><tspan
         dx="20.200001"
         dy="0"
         id="tspan59">3</tspan><tspan
         dx="20.200001"
         dy="0"
         id="tspan60">3</tspan><tspan
         dx="20.200001"
         dy="0"
         id="tspan61">1</tspan><tspan
         dx="20.200001"
         dy="0"
         id="tspan62">3</tspan></text>
  </g>
  <!-- Arrow pointing from 'Inflammation data' to 'Analysis' -->
  <polygon
     style="fill:none;stroke:#000000;stroke-miterlimit:10"
     points="346.5,110.4 328.1,110.4 328.1,122.2 346.5,122.2 346.5,129.5 359.3,116.3 346.5,103.2 "
     id="polygon62"
     transform="translate(-20,-11.448172)" />
  <!-- Arrow pointing from 'Analysis' to 'Conclusion'-->
  <!-- 2D inflammation heatmap -->
  <!-- rectangle around the 2D heatmap-->
  <!-- colorbar -->
  <!-- colorbar ticks -->
  <!-- rectangle around the colorbar -->
  <!-- colorbar labels -->
</svg>
